<?xml version="1.0" encoding="UTF-8" standalone="no"?>
<!DOCTYPE svg PUBLIC "-//W3C//DTD SVG 20010904//EN"
              "http://www.w3.org/TR/2001/REC-SVG-20010904/DTD/svg10.dtd">

<svg xmlns="http://www.w3.org/2000/svg"
     width="13.1528in" height="11.9167in"
     viewBox="0 0 947 858">
  <g id="elephant">
  <path id="Tusk - rear"
        fill="#b39455" stroke="#663c14" stroke-width="1"
        d="M 91.25,508.00
           C 106.00,494.50 114.50,485.25 130.50,465.50
             146.50,445.75 165.50,426.75 173.75,435.25
             182.00,443.75 189.75,477.25 173.50,490.25
             157.25,503.25 109.25,540.00 63.75,541.25
             42.50,541.75 23.25,529.75 50.00,523.25
             76.75,516.75 78.50,516.50 91.25,508.00 Z" />
  <path id="Body"
        fill="#ae8545" stroke="#663c14" stroke-width="1"
        d="M 289.50,141.00
           C 289.50,141.00 420.50,90.50 451.25,101.25
             477.33,102.67 578.00,145.67 589.33,156.00
             629.67,153.00 708.67,183.67 751.67,236.00
             783.00,272.67 802.67,318.33 815.67,355.67
             825.33,385.67 823.33,398.00 830.00,407.00
             834.67,413.33 853.33,501.67 862.67,516.33
             868.33,528.00 872.67,566.67 872.00,586.33
             872.33,626.67 870.33,619.67 853.33,589.33
             845.67,564.33 844.33,555.33 839.67,537.00
             835.00,518.67 829.33,492.67 827.67,480.00
             827.33,467.67 827.67,463.67 822.00,453.67
             816.33,443.67 813.00,438.33 809.67,433.00
             807.00,438.33 804.33,453.67 810.00,476.00
             810.67,488.67 811.00,499.33 814.00,511.67
             817.00,524.00 831.33,576.00 835.00,580.67
             836.00,590.00 848.67,652.33 855.33,673.33
             861.67,690.00 862.33,703.67 865.00,716.33
             867.67,729.00 886.33,779.33 886.33,796.33
             888.00,808.67 880.67,813.00 863.33,820.67
             846.00,828.33 816.33,835.67 803.67,838.67
             791.00,841.67 783.00,842.67 780.00,837.67
             778.33,839.33 764.00,844.33 757.67,840.67
             751.33,837.00 744.33,834.00 744.67,811.33
             745.00,788.67 747.33,680.33 745.33,667.33
             743.33,654.33 725.33,615.00 701.33,596.67
             699.67,629.67 695.33,711.33 693.67,716.33
             695.00,724.67 695.33,750.00 697.00,754.67
             698.67,759.33 700.67,798.67 700.33,804.00
             700.00,809.33 702.00,824.67 683.67,826.33
             670.00,830.33 646.33,836.67 637.33,833.67
             626.00,834.67 603.00,836.33 598.67,827.00
             593.33,832.00 571.33,827.33 574.00,804.00
             576.33,791.00 587.67,768.67 588.67,743.33
             591.00,712.00 594.67,692.33 591.00,655.00
             589.33,617.67 563.67,577.00 523.67,560.67
             483.67,544.33 455.67,526.67 437.33,515.67
             428.00,551.67 411.33,623.33 408.67,646.33
             406.00,669.33 401.33,728.00 407.00,762.33
             410.67,797.33 418.00,821.00 403.33,825.00
             388.67,829.00 376.00,832.33 368.00,828.67
             363.00,833.00 336.00,833.33 329.67,827.67
             324.33,831.00 288.00,835.33 290.67,811.00
             291.33,792.33 300.00,771.67 300.00,765.33
             300.00,759.00 301.33,731.67 305.00,723.67
             308.67,715.67 310.00,601.00 305.67,584.67
             293.67,609.67 292.67,621.00 288.00,636.33
             283.33,651.67 281.00,667.33 275.33,674.67
             269.67,682.00 258.33,741.33 252.67,754.33
             247.00,767.33 232.33,810.00 228.67,817.00
             227.00,822.33 228.33,823.00 217.00,824.33
             205.67,825.67 203.33,828.67 202.00,821.00
             198.33,825.33 161.33,831.33 157.00,820.00
             151.33,825.00 122.00,827.67 125.33,805.67
             125.67,803.67 126.67,801.00 128.67,797.33
             128.00,792.33 129.67,787.33 132.67,785.33
             134.00,778.00 148.00,732.67 148.67,726.67
             149.33,720.67 158.00,668.00 160.33,656.00
             163.50,583.50 251.83,173.67 289.50,141.00 Z" />
  <path id="Head"
        fill="#b48e4d" stroke="#663c14" stroke-width="1"
        d="M 323.50,61.00
           C 327.50,58.00 354.50,58.00 370.50,71.50
             390.75,77.25 416.50,91.00 416.50,94.75
             421.50,97.00 420.50,102.25 422.50,104.00
             445.00,117.00 485.50,141.50 489.00,223.00
             487.75,248.00 490.50,256.00 481.25,264.50
             473.50,274.50 465.00,276.25 461.75,278.50
             458.75,279.50 440.00,288.50 433.25,292.50
             427.75,295.75 422.00,299.00 415.75,304.50
             407.75,312.75 378.00,339.50 373.75,343.25
             367.25,348.00 358.50,356.50 342.00,346.50
             321.25,334.50 294.25,319.50 290.00,317.25
             286.25,322.00 230.00,397.75 216.25,403.25
             210.75,417.50 205.75,509.50 204.50,535.50
             204.00,543.25 210.50,585.75 211.00,595.75
             212.00,605.25 216.00,621.00 210.25,618.50
             221.25,619.50 218.00,644.25 218.00,646.50
             218.00,648.75 219.00,654.50 216.50,656.00
             221.50,656.75 221.25,665.50 221.25,668.00
             221.50,675.50 223.82,689.09 216.75,690.50
             225.09,690.91 223.25,703.25 223.00,705.25
             221.75,709.50 226.25,721.50 219.25,721.25
             228.75,721.50 226.50,735.00 226.50,735.00
             226.50,735.00 228.00,745.50 224.75,746.50
             231.25,746.00 245.50,756.16 244.00,760.91
             251.09,757.27 251.64,757.45 256.18,761.27
             275.09,761.09 272.78,780.82 267.25,790.50
             258.25,806.25 239.50,815.75 226.75,802.75
             214.00,789.75 193.50,750.00 183.75,728.00
             173.25,700.75 150.25,558.00 148.75,544.25
             147.25,530.50 123.25,397.00 116.00,382.50
             112.50,371.00 78.00,248.50 73.00,231.50
             61.00,176.00 59.00,132.50 73.50,89.00
             90.00,49.00 100.00,17.50 167.50,29.00
             198.00,33.50 205.00,25.50 212.50,23.00
             225.00,13.00 261.50,14.50 284.00,32.50
             297.00,37.00 301.50,44.50 305.50,46.50
             317.50,44.00 320.50,55.00 323.50,61.00 Z" />
  <path id="Eye"
        fill="#663c14"
        d="M 251.00,187.25
           C 260.12,186.88 264.25,192.00 257.50,193.88
             250.75,195.75 249.25,196.75 243.38,193.75
             240.25,192.25 242.62,190.38 239.00,187.75
             235.38,185.12 240.62,183.50 244.25,184.62
             247.75,187.50 248.50,187.38 251.00,187.25 Z" />
  <path id="Tusk - front"
        fill="#ae8e51" stroke="#663c14" stroke-width="1"
        d="M 156.00,572.00
           C 142.50,578.50 128.00,594.50 165.00,593.00
             201.00,588.50 218.00,575.50 250.50,539.00
             282.50,487.00 276.50,370.50 268.50,345.50
             255.75,326.00 231.50,356.00 231.50,360.00
             242.00,380.75 241.50,443.50 239.00,466.00
             236.25,491.75 232.50,503.25 216.00,525.00
             195.00,553.00 171.00,562.50 156.00,572.00 Z" />
    </g>
</svg>
